STARTFONT 2.1
FONT -FontForge-Boston-Regular-R-Normal--26-260-72-72-P-151-MacRoman-0
SIZE 26 72 72
FONTBOUNDINGBOX 38 26 0 -4
COMMENT "Generated by fontforge, http://fontforge.sourceforge.net"
STARTPROPERTIES 30
FOUNDRY "FontForge"
FAMILY_NAME "Boston"
WEIGHT_NAME "Regular"
SLANT "R"
SETWIDTH_NAME "Normal"
ADD_STYLE_NAME ""
PIXEL_SIZE 26
POINT_SIZE 260
RESOLUTION_X 72
RESOLUTION_Y 72
SPACING "P"
AVERAGE_WIDTH 151
CHARSET_REGISTRY "MacRoman"
CHARSET_ENCODING "0"
FONTNAME_REGISTRY ""
CHARSET_COLLECTIONS "MacRoman"
FONT_NAME "Boston"
FACE_NAME "Boston"
FONT_VERSION "001.000"
FONT_ASCENT 22
FONT_DESCENT 4
UNDERLINE_POSITION -3
UNDERLINE_THICKNESS 2
X_HEIGHT 11
CAP_HEIGHT 15
RAW_ASCENT 800
RAW_DESCENT 200
NORM_SPACE 12
AVG_LOWERCASE_WIDTH 151
AVG_UPPERCASE_WIDTH 176
ENDPROPERTIES
CHARS 227
STARTCHAR uni0000
ENCODING 0
SWIDTH 0 0
DWIDTH 0 0
BBX 1 1 0 0
BITMAP
00
ENDCHAR
STARTCHAR uni0009
ENCODING 9
SWIDTH 0 0
DWIDTH 18 0
BBX 1 1 0 0
BITMAP
00
ENDCHAR
STARTCHAR uni000A
ENCODING 10
SWIDTH 0 0
DWIDTH 0 0
BBX 1 1 0 0
BITMAP
00
ENDCHAR
STARTCHAR uni000B
ENCODING 11
SWIDTH 0 0
DWIDTH 0 0
BBX 1 1 0 0
BITMAP
00
ENDCHAR
STARTCHAR uni000C
ENCODING 12
SWIDTH 0 0
DWIDTH 0 0
BBX 1 1 0 0
BITMAP
00
ENDCHAR
STARTCHAR uni000D
ENCODING 13
SWIDTH 0 0
DWIDTH 0 0
BBX 1 1 0 0
BITMAP
00
ENDCHAR
STARTCHAR uni001F
ENCODING 31
SWIDTH 0 0
DWIDTH 0 0
BBX 1 1 0 0
BITMAP
00
ENDCHAR
STARTCHAR space
ENCODING 32
SWIDTH 461 0
DWIDTH 12 0
BBX 1 1 12 -4
BITMAP
00
ENDCHAR
STARTCHAR exclam
ENCODING 33
SWIDTH 461 0
DWIDTH 12 0
BBX 1 16 5 0
BITMAP
80
80
80
80
80
80
80
80
80
80
80
00
00
00
80
80
ENDCHAR
STARTCHAR quotedbl
ENCODING 34
SWIDTH 461 0
DWIDTH 12 0
BBX 5 5 4 11
BITMAP
88
88
88
88
88
ENDCHAR
STARTCHAR numbersign
ENCODING 35
SWIDTH 615 0
DWIDTH 16 0
BBX 13 11 2 7
BITMAP
0440
0440
0440
7FF8
0880
0880
0880
FFF0
1100
1100
1100
ENDCHAR
STARTCHAR dollar
ENCODING 36
SWIDTH 615 0
DWIDTH 16 0
BBX 11 20 2 -2
BITMAP
0400
0400
3FA0
4460
8420
8420
8400
4400
3400
0E00
0580
0440
0420
0420
8420
8420
C440
BF80
0400
0400
ENDCHAR
STARTCHAR percent
ENCODING 37
SWIDTH 692 0
DWIDTH 18 0
BBX 15 16 2 0
BITMAP
3FFC
4404
8208
8210
8220
4440
3880
0100
0200
0438
0844
1082
2082
4082
4044
4038
ENDCHAR
STARTCHAR ampersand
ENCODING 38
SWIDTH 692 0
DWIDTH 14 0
BBX 11 16 2 0
BITMAP
1800
2400
4200
4200
4400
2800
1000
2800
4400
4200
8120
80C0
8080
4140
4240
3C40
ENDCHAR
STARTCHAR quotesingle
ENCODING 39
SWIDTH 307 0
DWIDTH 8 0
BBX 1 5 4 11
BITMAP
80
80
80
80
80
ENDCHAR
STARTCHAR parenleft
ENCODING 40
SWIDTH 461 0
DWIDTH 12 0
BBX 7 24 4 -4
BITMAP
02
04
08
10
20
20
40
40
80
80
80
80
80
80
80
80
40
40
20
20
10
08
04
02
ENDCHAR
STARTCHAR parenright
ENCODING 41
SWIDTH 461 0
DWIDTH 12 0
BBX 7 24 2 -4
BITMAP
80
40
20
10
08
08
04
04
02
02
02
02
02
02
02
02
04
04
08
08
10
20
40
80
ENDCHAR
STARTCHAR asterisk
ENCODING 42
SWIDTH 461 0
DWIDTH 12 0
BBX 9 9 2 7
BITMAP
0800
8880
4900
2A00
1C00
2A00
4900
8880
0800
ENDCHAR
STARTCHAR plus
ENCODING 43
SWIDTH 615 0
DWIDTH 16 0
BBX 13 13 2 1
BITMAP
0200
0200
0200
0200
0200
0200
FFF8
0200
0200
0200
0200
0200
0200
ENDCHAR
STARTCHAR comma
ENCODING 44
SWIDTH 461 0
DWIDTH 12 0
BBX 3 6 3 -4
BITMAP
E0
20
20
20
40
80
ENDCHAR
STARTCHAR hyphen
ENCODING 45
SWIDTH 615 0
DWIDTH 16 0
BBX 12 1 2 7
BITMAP
FFF0
ENDCHAR
STARTCHAR period
ENCODING 46
SWIDTH 461 0
DWIDTH 12 0
BBX 1 2 5 0
BITMAP
80
80
ENDCHAR
STARTCHAR slash
ENCODING 47
SWIDTH 461 0
DWIDTH 12 0
BBX 10 24 1 -4
BITMAP
0040
0040
0040
0080
0080
0100
0100
0200
0200
0200
0400
0400
0800
0800
1000
1000
1000
2000
2000
4000
4000
8000
8000
8000
ENDCHAR
STARTCHAR zero
ENCODING 48
SWIDTH 538 0
DWIDTH 14 0
BBX 10 16 2 0
BITMAP
1E00
2100
4080
4080
8040
8040
8040
8040
8040
8040
8040
8040
4080
4080
2100
1E00
ENDCHAR
STARTCHAR one
ENCODING 49
SWIDTH 538 0
DWIDTH 14 0
BBX 9 16 3 0
BITMAP
0800
1800
2800
4800
8800
0800
0800
0800
0800
0800
0800
0800
0800
0800
0800
FF80
ENDCHAR
STARTCHAR two
ENCODING 50
SWIDTH 538 0
DWIDTH 14 0
BBX 10 16 2 0
BITMAP
1C00
6300
8080
8080
0040
0040
0040
0080
0080
0300
0400
1800
2000
4040
8040
FFC0
ENDCHAR
STARTCHAR three
ENCODING 51
SWIDTH 538 0
DWIDTH 14 0
BBX 10 16 2 0
BITMAP
FFC0
8080
8100
0200
0400
0800
1C00
0300
0080
0040
0040
0040
8040
8080
6300
1C00
ENDCHAR
STARTCHAR four
ENCODING 52
SWIDTH 538 0
DWIDTH 14 0
BBX 11 16 2 0
BITMAP
0080
0180
0280
0480
0880
0880
1080
2080
4080
8080
FFE0
0080
0080
0080
0080
03E0
ENDCHAR
STARTCHAR five
ENCODING 53
SWIDTH 538 0
DWIDTH 14 0
BBX 10 16 2 0
BITMAP
FF80
8000
8000
8000
8000
9C00
E300
8080
0080
0040
0040
0040
0080
8080
6300
1C00
ENDCHAR
STARTCHAR six
ENCODING 54
SWIDTH 538 0
DWIDTH 14 0
BBX 10 16 2 0
BITMAP
0400
0800
1000
2000
4000
4000
8C00
B300
C080
8080
8040
8040
8080
4080
3300
0C00
ENDCHAR
STARTCHAR seven
ENCODING 55
SWIDTH 538 0
DWIDTH 14 0
BBX 10 16 2 0
BITMAP
FFC0
8040
8080
0080
0100
0100
0200
0200
0400
0400
0800
0800
1000
1000
2000
2000
ENDCHAR
STARTCHAR eight
ENCODING 56
SWIDTH 538 0
DWIDTH 14 0
BBX 10 16 2 0
BITMAP
1E00
2100
4080
8040
8040
4080
2100
1E00
2100
4080
8040
8040
8040
4080
2100
1E00
ENDCHAR
STARTCHAR nine
ENCODING 57
SWIDTH 538 0
DWIDTH 14 0
BBX 10 16 2 0
BITMAP
0C00
3300
4080
4040
8040
8040
4040
40C0
3340
0C40
0080
0080
0100
0200
0400
0800
ENDCHAR
STARTCHAR colon
ENCODING 58
SWIDTH 461 0
DWIDTH 12 0
BBX 1 12 5 0
BITMAP
80
80
00
00
00
00
00
00
00
00
80
80
ENDCHAR
STARTCHAR semicolon
ENCODING 59
SWIDTH 461 0
DWIDTH 12 0
BBX 3 16 3 -4
BITMAP
40
40
00
00
00
00
00
00
00
00
E0
20
20
20
40
80
ENDCHAR
STARTCHAR less
ENCODING 60
SWIDTH 615 0
DWIDTH 16 0
BBX 12 11 2 2
BITMAP
0030
00C0
0300
0C00
3000
C000
3000
0C00
0300
00C0
0030
ENDCHAR
STARTCHAR equal
ENCODING 61
SWIDTH 615 0
DWIDTH 16 0
BBX 12 6 2 4
BITMAP
FFF0
0000
0000
0000
0000
FFF0
ENDCHAR
STARTCHAR greater
ENCODING 62
SWIDTH 615 0
DWIDTH 16 0
BBX 12 11 2 2
BITMAP
C000
3000
0C00
0300
00C0
0030
00C0
0300
0C00
3000
C000
ENDCHAR
STARTCHAR question
ENCODING 63
SWIDTH 538 0
DWIDTH 13 0
BBX 9 16 2 0
BITMAP
3E00
4100
8080
8080
0080
0100
0200
0400
0800
0800
0800
0000
0000
0000
0800
0800
ENDCHAR
STARTCHAR at
ENCODING 64
SWIDTH 692 0
DWIDTH 18 0
BBX 15 16 2 -2
BITMAP
07C0
1830
2008
4004
43C4
8422
8822
8822
8822
8862
84A2
431C
4000
2000
1800
07C0
ENDCHAR
STARTCHAR A
ENCODING 65
SWIDTH 769 0
DWIDTH 20 0
BBX 17 16 2 0
BITMAP
008000
008000
014000
014000
022000
022000
041000
041000
041000
080800
080800
1FFC00
100400
200200
200200
F80F80
ENDCHAR
STARTCHAR B
ENCODING 66
SWIDTH 615 0
DWIDTH 16 0
BBX 13 16 2 0
BITMAP
FFC0
2020
2010
2010
2010
2010
2020
3FC0
2020
2010
2008
2008
2008
2008
2010
FFE0
ENDCHAR
STARTCHAR C
ENCODING 67
SWIDTH 538 0
DWIDTH 14 0
BBX 11 16 2 0
BITMAP
0720
18E0
2020
4020
4000
8000
8000
8000
8000
8000
8000
4000
4000
2020
18C0
0700
ENDCHAR
STARTCHAR D
ENCODING 68
SWIDTH 615 0
DWIDTH 16 0
BBX 13 16 2 0
BITMAP
FF00
20C0
2020
2010
2010
2008
2008
2008
2008
2008
2008
2010
2010
2020
20C0
FF00
ENDCHAR
STARTCHAR E
ENCODING 69
SWIDTH 615 0
DWIDTH 16 0
BBX 13 16 2 0
BITMAP
FFF8
2008
2008
2000
2000
2080
2080
3F80
2080
2080
2000
2000
2000
2008
2008
FFF8
ENDCHAR
STARTCHAR F
ENCODING 70
SWIDTH 615 0
DWIDTH 16 0
BBX 13 16 2 0
BITMAP
FFF8
2008
2008
2000
2000
2080
2080
3F80
2080
2080
2000
2000
2000
2000
2000
F800
ENDCHAR
STARTCHAR G
ENCODING 71
SWIDTH 615 0
DWIDTH 16 0
BBX 13 16 2 0
BITMAP
0790
1850
2030
4010
4010
8000
8000
8000
83F8
8008
8008
4008
4008
2018
1868
0788
ENDCHAR
STARTCHAR H
ENCODING 72
SWIDTH 692 0
DWIDTH 18 0
BBX 15 16 2 0
BITMAP
F83E
2008
2008
2008
2008
2008
2008
3FF8
2008
2008
2008
2008
2008
2008
2008
F83E
ENDCHAR
STARTCHAR I
ENCODING 73
SWIDTH 384 0
DWIDTH 10 0
BBX 5 16 3 0
BITMAP
F8
20
20
20
20
20
20
20
20
20
20
20
20
20
20
F8
ENDCHAR
STARTCHAR J
ENCODING 74
SWIDTH 615 0
DWIDTH 16 0
BBX 13 16 2 0
BITMAP
00F8
0020
0020
0020
0020
0020
0020
0020
0020
0020
8020
8020
4040
4040
3180
0E00
ENDCHAR
STARTCHAR K
ENCODING 75
SWIDTH 692 0
DWIDTH 18 0
BBX 15 16 2 0
BITMAP
F87C
2010
2020
2040
2080
2100
2200
2400
2A00
3100
2080
2040
2020
2010
2008
F83E
ENDCHAR
STARTCHAR L
ENCODING 76
SWIDTH 615 0
DWIDTH 16 0
BBX 13 16 2 0
BITMAP
F800
2000
2000
2000
2000
2000
2000
2000
2000
2000
2000
2000
2000
2008
2008
FFF8
ENDCHAR
STARTCHAR M
ENCODING 77
SWIDTH 923 0
DWIDTH 24 0
BBX 21 16 2 0
BITMAP
F00078
2800A0
2800A0
240120
240120
220220
220220
210420
210420
208820
208820
205020
205020
202020
202020
F800F8
ENDCHAR
STARTCHAR N
ENCODING 78
SWIDTH 769 0
DWIDTH 20 0
BBX 17 16 2 0
BITMAP
F00F80
280200
240200
240200
220200
210200
210200
208200
204200
204200
202200
201200
201200
200A00
200600
F80600
ENDCHAR
STARTCHAR O
ENCODING 79
SWIDTH 615 0
DWIDTH 16 0
BBX 13 16 2 0
BITMAP
0700
18C0
2020
4010
4010
8008
8008
8008
8008
8008
8008
4010
4010
2020
18C0
0700
ENDCHAR
STARTCHAR P
ENCODING 80
SWIDTH 615 0
DWIDTH 16 0
BBX 13 16 2 0
BITMAP
FF80
2060
2010
2010
2008
2008
2010
2010
2060
3F80
2000
2000
2000
2000
2000
F800
ENDCHAR
STARTCHAR Q
ENCODING 81
SWIDTH 615 0
DWIDTH 16 0
BBX 13 18 2 -2
BITMAP
0700
18C0
2020
4010
4010
8008
8008
8008
8008
8008
8008
4010
4110
20A0
1840
07A0
0010
0008
ENDCHAR
STARTCHAR R
ENCODING 82
SWIDTH 692 0
DWIDTH 18 0
BBX 15 16 2 0
BITMAP
FF80
2060
2010
2010
2008
2008
2010
2010
2060
3F80
2080
2040
2020
2010
2008
F83E
ENDCHAR
STARTCHAR S
ENCODING 83
SWIDTH 615 0
DWIDTH 16 0
BBX 13 16 2 0
BITMAP
0FC8
3028
4018
8008
8008
4000
3000
0F80
0060
0010
0008
8008
8008
C010
B060
8F80
ENDCHAR
STARTCHAR T
ENCODING 84
SWIDTH 615 0
DWIDTH 16 0
BBX 13 16 2 0
BITMAP
FFF8
8208
8208
0200
0200
0200
0200
0200
0200
0200
0200
0200
0200
0200
0200
0F80
ENDCHAR
STARTCHAR U
ENCODING 85
SWIDTH 769 0
DWIDTH 20 0
BBX 17 16 2 0
BITMAP
F80F80
200200
200200
200200
200200
200200
200200
200200
200200
200200
200200
200200
100400
100400
0C1800
03E000
ENDCHAR
STARTCHAR V
ENCODING 86
SWIDTH 769 0
DWIDTH 21 0
BBX 19 16 1 0
BITMAP
F803E0
200080
100100
100100
080200
080200
040400
040400
020800
020800
011000
011000
00A000
00A000
004000
004000
ENDCHAR
STARTCHAR W
ENCODING 87
SWIDTH 1076 0
DWIDTH 28 0
BBX 25 16 2 0
BITMAP
F8080F80
20080200
10140400
10140400
10140400
08220800
08220800
08220800
04411000
04411000
04411000
0280A000
0280A000
0280A000
01004000
01004000
ENDCHAR
STARTCHAR X
ENCODING 88
SWIDTH 692 0
DWIDTH 18 0
BBX 15 16 2 0
BITMAP
F83E
2008
2008
1010
0820
0440
0280
0100
0100
0280
0440
0820
1010
2008
2008
F03E
ENDCHAR
STARTCHAR Y
ENCODING 89
SWIDTH 769 0
DWIDTH 20 0
BBX 17 16 2 0
BITMAP
F80F80
200200
100400
080800
080800
041000
022000
022000
014000
008000
008000
008000
008000
008000
008000
03E000
ENDCHAR
STARTCHAR Z
ENCODING 90
SWIDTH 615 0
DWIDTH 16 0
BBX 13 16 2 0
BITMAP
FFF8
8010
8020
0040
0040
0080
0100
0200
0200
0400
0800
1000
1000
2008
4008
FFF8
ENDCHAR
STARTCHAR bracketleft
ENCODING 91
SWIDTH 461 0
DWIDTH 12 0
BBX 5 24 6 -4
BITMAP
F8
80
80
80
80
80
80
80
80
80
80
80
80
80
80
80
80
80
80
80
80
80
80
F8
ENDCHAR
STARTCHAR backslash
ENCODING 92
SWIDTH 461 0
DWIDTH 12 0
BBX 10 24 1 -4
BITMAP
8000
8000
8000
4000
4000
2000
2000
1000
1000
1000
0800
0800
0400
0400
0200
0200
0200
0100
0100
0080
0080
0040
0040
0040
ENDCHAR
STARTCHAR bracketright
ENCODING 93
SWIDTH 461 0
DWIDTH 12 0
BBX 5 24 2 -4
BITMAP
F8
08
08
08
08
08
08
08
08
08
08
08
08
08
08
08
08
08
08
08
08
08
08
F8
ENDCHAR
STARTCHAR asciicircum
ENCODING 94
SWIDTH 461 0
DWIDTH 12 0
BBX 7 4 3 12
BITMAP
10
28
44
82
ENDCHAR
STARTCHAR underscore
ENCODING 95
SWIDTH 538 0
DWIDTH 14 0
BBX 14 1 0 0
BITMAP
FFFC
ENDCHAR
STARTCHAR grave
ENCODING 96
SWIDTH 307 0
DWIDTH 9 0
BBX 4 4 3 12
BITMAP
80
40
20
10
ENDCHAR
STARTCHAR a
ENCODING 97
SWIDTH 615 0
DWIDTH 16 0
BBX 13 12 2 0
BITMAP
0E00
3180
4040
0020
03E0
0C20
3020
4020
8020
8060
40A0
3F38
ENDCHAR
STARTCHAR b
ENCODING 98
SWIDTH 615 0
DWIDTH 16 0
BBX 13 16 2 0
BITMAP
E000
2000
2000
2000
27C0
2820
3010
2010
2008
2008
2008
2008
2010
3010
2820
E7C0
ENDCHAR
STARTCHAR c
ENCODING 99
SWIDTH 538 0
DWIDTH 14 0
BBX 11 12 2 0
BITMAP
1F80
2040
4020
4000
8000
8000
8000
8000
4000
4020
2040
1F80
ENDCHAR
STARTCHAR d
ENCODING 100
SWIDTH 615 0
DWIDTH 16 0
BBX 13 16 2 0
BITMAP
00E0
0020
0020
0020
1F20
20A0
4060
4020
8020
8020
8020
8020
4020
4060
20A0
1F38
ENDCHAR
STARTCHAR e
ENCODING 101
SWIDTH 538 0
DWIDTH 14 0
BBX 11 12 2 0
BITMAP
0F80
3040
4020
4020
80C0
8300
8C00
B000
4000
4000
3040
0F80
ENDCHAR
STARTCHAR f
ENCODING 102
SWIDTH 384 0
DWIDTH 10 0
BBX 7 16 2 0
BITMAP
0E
10
20
20
FC
20
20
20
20
20
20
20
20
20
20
F8
ENDCHAR
STARTCHAR g
ENCODING 103
SWIDTH 538 0
DWIDTH 14 0
BBX 11 16 2 -4
BITMAP
3DC0
4200
8100
8100
8100
8100
4200
3C00
4000
3F00
40C0
8020
8020
8020
60C0
1F00
ENDCHAR
STARTCHAR h
ENCODING 104
SWIDTH 692 0
DWIDTH 18 0
BBX 15 16 2 0
BITMAP
E000
2000
2000
2000
21E0
2610
2808
3008
2008
2008
2008
2008
2008
2008
2008
F83E
ENDCHAR
STARTCHAR i
ENCODING 105
SWIDTH 307 0
DWIDTH 8 0
BBX 5 16 2 0
BITMAP
20
20
00
00
E0
20
20
20
20
20
20
20
20
20
20
F8
ENDCHAR
STARTCHAR j
ENCODING 106
SWIDTH 384 0
DWIDTH 12 0
BBX 9 20 1 -4
BITMAP
0080
0080
0000
0000
0380
0080
0080
0080
0080
0080
0080
0080
0080
0080
0080
0080
8080
8080
4100
3E00
ENDCHAR
STARTCHAR k
ENCODING 107
SWIDTH 615 0
DWIDTH 16 0
BBX 13 16 2 0
BITMAP
E000
2000
2000
2000
23E0
2100
2200
2400
2800
3400
2200
2100
2080
2040
2020
F8F8
ENDCHAR
STARTCHAR l
ENCODING 108
SWIDTH 307 0
DWIDTH 8 0
BBX 5 16 2 0
BITMAP
E0
20
20
20
20
20
20
20
20
20
20
20
20
20
20
F8
ENDCHAR
STARTCHAR m
ENCODING 109
SWIDTH 1076 0
DWIDTH 28 0
BBX 25 12 2 0
BITMAP
E1E07800
26118400
280A0200
300C0200
20080200
20080200
20080200
20080200
20080200
20080200
20080200
F83E0F80
ENDCHAR
STARTCHAR n
ENCODING 110
SWIDTH 692 0
DWIDTH 18 0
BBX 15 12 2 0
BITMAP
E1E0
2610
2808
3008
2008
2008
2008
2008
2008
2008
2008
F83E
ENDCHAR
STARTCHAR o
ENCODING 111
SWIDTH 538 0
DWIDTH 14 0
BBX 11 12 2 0
BITMAP
1F00
2080
4040
4040
8020
8020
8020
8020
4040
4040
2080
1F00
ENDCHAR
STARTCHAR p
ENCODING 112
SWIDTH 615 0
DWIDTH 16 0
BBX 13 16 2 -4
BITMAP
E7C0
2820
3010
2010
2008
2008
2008
2008
2010
3010
2820
27C0
2000
2000
2000
F800
ENDCHAR
STARTCHAR q
ENCODING 113
SWIDTH 615 0
DWIDTH 16 0
BBX 13 16 2 -4
BITMAP
1F38
20A0
4060
4020
8020
8020
8020
8020
4020
4060
20A0
1F20
0020
0020
0020
00F8
ENDCHAR
STARTCHAR r
ENCODING 114
SWIDTH 538 0
DWIDTH 14 0
BBX 11 12 2 0
BITMAP
E1E0
2600
2800
3000
2000
2000
2000
2000
2000
2000
2000
F800
ENDCHAR
STARTCHAR s
ENCODING 115
SWIDTH 461 0
DWIDTH 12 0
BBX 9 12 2 0
BITMAP
3E00
4100
8080
8000
4000
3E00
0100
0080
0080
8080
4100
3E00
ENDCHAR
STARTCHAR t
ENCODING 116
SWIDTH 461 0
DWIDTH 12 0
BBX 9 16 2 0
BITMAP
1000
1000
1000
1000
FF00
1000
1000
1000
1000
1000
1000
1000
1000
1080
0900
0600
ENDCHAR
STARTCHAR u
ENCODING 117
SWIDTH 692 0
DWIDTH 18 0
BBX 15 12 2 0
BITMAP
E038
2008
2008
2008
2008
2008
2008
2008
2018
2028
10C8
0F0E
ENDCHAR
STARTCHAR v
ENCODING 118
SWIDTH 692 0
DWIDTH 18 0
BBX 17 12 1 0
BITMAP
F80F80
200200
100400
100400
080800
041000
041000
022000
022000
014000
008000
008000
ENDCHAR
STARTCHAR w
ENCODING 119
SWIDTH 923 0
DWIDTH 24 0
BBX 23 12 1 0
BITMAP
F8003E
200008
101010
101010
082820
082820
044440
044440
028280
028280
010100
010100
ENDCHAR
STARTCHAR x
ENCODING 120
SWIDTH 615 0
DWIDTH 16 0
BBX 13 12 2 0
BITMAP
F8F8
2020
1040
0880
0500
0200
0200
0500
0880
1040
2020
F8F8
ENDCHAR
STARTCHAR y
ENCODING 121
SWIDTH 692 0
DWIDTH 18 0
BBX 17 16 1 -4
BITMAP
F80F80
200200
100400
100400
080800
041000
041000
022000
022000
014000
008000
008000
010000
010000
020000
1C0000
ENDCHAR
STARTCHAR z
ENCODING 122
SWIDTH 538 0
DWIDTH 14 0
BBX 11 12 2 0
BITMAP
FFE0
8040
8080
0100
0200
0400
0400
0800
1000
2020
4020
FFE0
ENDCHAR
STARTCHAR braceleft
ENCODING 123
SWIDTH 538 0
DWIDTH 14 0
BBX 9 24 4 -4
BITMAP
0380
0400
0800
0800
0800
0800
0800
0800
0800
0800
1000
E000
1000
0800
0800
0800
0800
0800
0800
0800
0800
0800
0400
0380
ENDCHAR
STARTCHAR bar
ENCODING 124
SWIDTH 153 0
DWIDTH 4 0
BBX 1 24 2 -4
BITMAP
80
80
80
80
80
80
80
80
80
80
80
80
80
80
80
80
80
80
80
80
80
80
80
80
ENDCHAR
STARTCHAR braceright
ENCODING 125
SWIDTH 538 0
DWIDTH 14 0
BBX 9 24 3 -4
BITMAP
E000
1000
0800
0800
0800
0800
0800
0800
0800
0800
0400
0380
0400
0800
0800
0800
0800
0800
0800
0800
0800
0800
1000
E000
ENDCHAR
STARTCHAR asciitilde
ENCODING 126
SWIDTH 615 0
DWIDTH 16 0
BBX 13 3 2 6
BITMAP
3C08
4210
81E0
ENDCHAR
STARTCHAR uni007F
ENCODING 127
SWIDTH 0 0
DWIDTH 0 0
BBX 1 1 0 -4
BITMAP
00
ENDCHAR
STARTCHAR Adieresis
ENCODING 128
SWIDTH 769 0
DWIDTH 20 0
BBX 17 20 2 0
BITMAP
041000
041000
000000
000000
008000
008000
014000
014000
022000
022000
041000
041000
041000
080800
080800
1FFC00
100400
200200
200200
F80F80
ENDCHAR
STARTCHAR Aring
ENCODING 129
SWIDTH 769 0
DWIDTH 20 0
BBX 17 21 2 0
BITMAP
01C000
022000
022000
022000
01C000
008000
008000
014000
014000
022000
022000
041000
041000
041000
080800
080800
1FFC00
100400
200200
200200
F80F80
ENDCHAR
STARTCHAR Ccedilla
ENCODING 130
SWIDTH 538 0
DWIDTH 14 0
BBX 11 20 2 -4
BITMAP
0720
18E0
2020
4020
4000
8000
8000
8000
8000
8000
8000
4000
4000
2020
18C0
0700
0300
0100
0100
0E00
ENDCHAR
STARTCHAR Eacute
ENCODING 131
SWIDTH 615 0
DWIDTH 16 0
BBX 13 22 2 0
BITMAP
0080
0100
0200
0400
0000
0000
FFF8
2008
2008
2000
2000
2080
2080
3F80
2080
2080
2000
2000
2000
2008
2008
FFF8
ENDCHAR
STARTCHAR Ntilde
ENCODING 132
SWIDTH 769 0
DWIDTH 20 0
BBX 17 21 2 0
BITMAP
070400
088800
107000
000000
000000
F00F80
280200
240200
240200
220200
220200
210200
208200
208200
204200
202200
202200
201200
201200
200A00
F80780
ENDCHAR
STARTCHAR Odieresis
ENCODING 133
SWIDTH 615 0
DWIDTH 16 0
BBX 13 20 2 0
BITMAP
2020
2020
0000
0000
0700
18C0
2020
4010
4010
8008
8008
8008
8008
8008
8008
4010
4010
2020
18C0
0700
ENDCHAR
STARTCHAR Udieresis
ENCODING 134
SWIDTH 769 0
DWIDTH 20 0
BBX 17 20 2 0
BITMAP
080800
080800
000000
000000
F80F80
200200
200200
200200
200200
200200
200200
200200
200200
200200
200200
200200
100400
100400
0C1800
03E000
ENDCHAR
STARTCHAR aacute
ENCODING 135
SWIDTH 615 0
DWIDTH 16 0
BBX 13 18 2 0
BITMAP
0100
0200
0400
0800
0000
0000
0E00
3180
4040
0020
03E0
0C20
3020
4020
8020
8060
40A0
3F38
ENDCHAR
STARTCHAR agrave
ENCODING 136
SWIDTH 615 0
DWIDTH 16 0
BBX 13 18 2 0
BITMAP
0800
0400
0200
0100
0000
0000
0E00
3180
4040
0020
03E0
0C20
3020
4020
8020
8060
40A0
3F38
ENDCHAR
STARTCHAR acircumflex
ENCODING 137
SWIDTH 615 0
DWIDTH 16 0
BBX 13 18 2 0
BITMAP
0400
0A00
1100
2080
0000
0000
0E00
3180
4040
0020
03E0
0C20
3020
4020
8020
8060
40A0
3F38
ENDCHAR
STARTCHAR adieresis
ENCODING 138
SWIDTH 615 0
DWIDTH 16 0
BBX 13 16 2 0
BITMAP
4040
4040
0000
0000
0E00
3180
4040
0020
03E0
0C20
3020
4020
8020
8060
40A0
3F38
ENDCHAR
STARTCHAR atilde
ENCODING 139
SWIDTH 615 0
DWIDTH 16 0
BBX 13 17 2 0
BITMAP
3820
4440
8380
0000
0000
0E00
3180
4040
0020
03E0
0C20
3020
4020
8020
8060
40A0
3F38
ENDCHAR
STARTCHAR aring
ENCODING 140
SWIDTH 615 0
DWIDTH 16 0
BBX 13 19 2 0
BITMAP
0E00
1100
1100
1100
0E00
0000
0000
0E00
3180
4040
0020
03E0
0C20
3020
4020
8020
8060
40A0
3F38
ENDCHAR
STARTCHAR ccedilla
ENCODING 141
SWIDTH 538 0
DWIDTH 14 0
BBX 11 16 2 -4
BITMAP
1F80
2040
4020
4000
8000
8000
8000
8000
4000
4020
2040
1F80
0300
0100
0100
0E00
ENDCHAR
STARTCHAR eacute
ENCODING 142
SWIDTH 538 0
DWIDTH 14 0
BBX 11 18 2 0
BITMAP
0100
0200
0400
0800
0000
0000
0F80
3040
4020
4020
80C0
8300
8C00
B000
4000
4000
3040
0F80
ENDCHAR
STARTCHAR egrave
ENCODING 143
SWIDTH 538 0
DWIDTH 14 0
BBX 11 18 2 0
BITMAP
0800
0400
0200
0100
0000
0000
0F80
3040
4020
4020
80C0
8300
8C00
B000
4000
4000
3040
0F80
ENDCHAR
STARTCHAR ecircumflex
ENCODING 144
SWIDTH 538 0
DWIDTH 14 0
BBX 11 18 2 0
BITMAP
0400
0A00
1100
2080
0000
0000
0F80
3040
4020
4020
80C0
8300
8C00
B000
4000
4000
3040
0F80
ENDCHAR
STARTCHAR edieresis
ENCODING 145
SWIDTH 538 0
DWIDTH 14 0
BBX 11 16 2 0
BITMAP
4040
4040
0000
0000
0F80
3040
4020
4020
80C0
8300
8C00
B000
4000
4000
3040
0F80
ENDCHAR
STARTCHAR iacute
ENCODING 146
SWIDTH 307 0
DWIDTH 8 0
BBX 5 18 2 0
BITMAP
10
20
40
80
00
00
E0
20
20
20
20
20
20
20
20
20
20
F8
ENDCHAR
STARTCHAR igrave
ENCODING 147
SWIDTH 307 0
DWIDTH 8 0
BBX 5 18 2 0
BITMAP
80
40
20
10
00
00
E0
20
20
20
20
20
20
20
20
20
20
F8
ENDCHAR
STARTCHAR icircumflex
ENCODING 148
SWIDTH 307 0
DWIDTH 10 0
BBX 7 18 2 0
BITMAP
10
28
44
82
00
00
70
10
10
10
10
10
10
10
10
10
10
7C
ENDCHAR
STARTCHAR idieresis
ENCODING 149
SWIDTH 307 0
DWIDTH 10 0
BBX 5 16 3 0
BITMAP
88
88
00
00
E0
20
20
20
20
20
20
20
20
20
20
F8
ENDCHAR
STARTCHAR ntilde
ENCODING 150
SWIDTH 692 0
DWIDTH 19 0
BBX 16 17 2 0
BITMAP
0E08
1110
20E0
0000
0000
E0F0
2308
2404
2804
3004
2004
2004
2004
2004
2004
2004
F81F
ENDCHAR
STARTCHAR oacute
ENCODING 151
SWIDTH 538 0
DWIDTH 14 0
BBX 11 18 2 0
BITMAP
0080
0100
0200
0400
0000
0000
1F00
2080
4040
4040
8020
8020
8020
8020
4040
4040
2080
1F00
ENDCHAR
STARTCHAR ograve
ENCODING 152
SWIDTH 538 0
DWIDTH 14 0
BBX 11 18 2 0
BITMAP
0800
0400
0200
0100
0000
0000
1F00
2080
4040
4040
8020
8020
8020
8020
4040
4040
2080
1F00
ENDCHAR
STARTCHAR ocircumflex
ENCODING 153
SWIDTH 538 0
DWIDTH 14 0
BBX 11 18 2 0
BITMAP
0400
0A00
1100
2080
0000
0000
1F00
2080
4040
4040
8020
8020
8020
8020
4040
4040
2080
1F00
ENDCHAR
STARTCHAR odieresis
ENCODING 154
SWIDTH 538 0
DWIDTH 14 0
BBX 11 16 2 0
BITMAP
4040
4040
0000
0000
1F00
2080
4040
4040
8020
8020
8020
8020
4040
4040
2080
1F00
ENDCHAR
STARTCHAR otilde
ENCODING 155
SWIDTH 538 0
DWIDTH 14 0
BBX 11 17 2 0
BITMAP
3820
4440
8380
0000
0000
1F00
2080
4040
4040
8020
8020
8020
8020
4040
4040
2080
1F00
ENDCHAR
STARTCHAR uacute
ENCODING 156
SWIDTH 692 0
DWIDTH 18 0
BBX 15 18 2 0
BITMAP
0040
0080
0100
0200
0000
0000
E038
2008
2008
2008
2008
2008
2008
2008
2018
2028
10C8
0F0E
ENDCHAR
STARTCHAR ugrave
ENCODING 157
SWIDTH 692 0
DWIDTH 18 0
BBX 15 18 2 0
BITMAP
0400
0200
0100
0080
0000
0000
E038
2008
2008
2008
2008
2008
2008
2008
2018
2028
10C8
0F0E
ENDCHAR
STARTCHAR ucircumflex
ENCODING 158
SWIDTH 692 0
DWIDTH 18 0
BBX 15 18 2 0
BITMAP
0200
0500
0880
1040
0000
0000
E038
2008
2008
2008
2008
2008
2008
2008
2018
2028
10C8
0F0E
ENDCHAR
STARTCHAR udieresis
ENCODING 159
SWIDTH 692 0
DWIDTH 18 0
BBX 15 16 2 0
BITMAP
2020
2020
0000
0000
E038
2008
2008
2008
2008
2008
2008
2008
2018
2028
10C8
0F0E
ENDCHAR
STARTCHAR dagger
ENCODING 160
SWIDTH 769 0
DWIDTH 20 0
BBX 17 22 2 0
BITMAP
001000
002000
004000
008000
000000
000000
F80F80
200200
100400
080800
080800
041000
022000
022000
014000
008000
008000
008000
008000
008000
008000
03E000
ENDCHAR
STARTCHAR degree
ENCODING 161
SWIDTH 384 0
DWIDTH 10 0
BBX 7 6 2 10
BITMAP
38
44
82
82
44
38
ENDCHAR
STARTCHAR cent
ENCODING 162
SWIDTH 461 0
DWIDTH 14 0
BBX 10 20 2 -2
BITMAP
0400
0400
0400
0400
1F00
2480
4440
4400
8400
8400
8400
8400
4400
4440
2480
1F00
0400
0400
0400
0400
ENDCHAR
STARTCHAR sterling
ENCODING 163
SWIDTH 615 0
DWIDTH 16 0
BBX 11 16 2 0
BITMAP
0C00
1200
2000
2000
2000
2000
2000
2000
FC00
2000
2000
2000
2000
2020
2040
FF80
ENDCHAR
STARTCHAR section
ENCODING 164
SWIDTH 538 0
DWIDTH 12 0
BBX 9 24 2 -4
BITMAP
3E00
4100
8080
8080
8000
8000
8000
4000
3E00
4100
8080
8080
8080
8080
4100
3E00
0100
0080
0080
0080
8080
8080
4100
3E00
ENDCHAR
STARTCHAR bullet
ENCODING 165
SWIDTH 461 0
DWIDTH 12 0
BBX 8 8 2 4
BITMAP
18
7E
7E
FF
FF
7E
7E
18
ENDCHAR
STARTCHAR paragraph
ENCODING 166
SWIDTH 692 0
DWIDTH 18 0
BBX 14 24 2 -4
BITMAP
0FFC
3F90
7F90
7F90
FF90
FF90
FF90
FF90
7F90
7F90
3F90
0F90
0090
0090
0090
0090
0090
0090
0090
0090
0090
0090
0090
0090
ENDCHAR
STARTCHAR germandbls
ENCODING 167
SWIDTH 538 0
DWIDTH 14 0
BBX 11 16 2 0
BITMAP
0E00
1100
2100
2100
E700
2080
2040
2040
2020
2020
2020
2020
2020
2420
2440
E380
ENDCHAR
STARTCHAR registered
ENCODING 168
SWIDTH 615 0
DWIDTH 16 0
BBX 13 16 2 0
BITMAP
0F80
0200
0200
0F80
3260
4210
4210
8208
8208
4210
4210
3260
0F80
0200
0200
0F80
ENDCHAR
STARTCHAR copyright
ENCODING 169
SWIDTH 692 0
DWIDTH 18 0
BBX 15 16 2 0
BITMAP
07C0
1830
2008
4004
4384
8442
8802
8802
8802
8802
8442
4384
4004
2008
1830
07C0
ENDCHAR
STARTCHAR trademark
ENCODING 170
SWIDTH 769 0
DWIDTH 20 0
BBX 17 8 2 8
BITMAP
FE8080
10C180
10A280
109480
108880
108080
108080
108080
ENDCHAR
STARTCHAR acute
ENCODING 171
SWIDTH 230 0
DWIDTH 6 0
BBX 4 4 1 12
BITMAP
10
20
40
80
ENDCHAR
STARTCHAR dieresis
ENCODING 172
SWIDTH 384 0
DWIDTH 12 0
BBX 7 2 3 14
BITMAP
82
82
ENDCHAR
STARTCHAR notequal
ENCODING 173
SWIDTH 615 0
DWIDTH 16 0
BBX 12 12 2 1
BITMAP
0010
0020
0040
FFF0
0100
0200
0400
0800
FFF0
2000
4000
8000
ENDCHAR
STARTCHAR AE
ENCODING 174
SWIDTH 923 0
DWIDTH 24 0
BBX 21 16 2 0
BITMAP
00FFF8
006008
00A008
00A000
012000
012080
022080
03FF80
042080
042080
082000
082000
102000
102008
202008
F8FFF8
ENDCHAR
STARTCHAR Oslash
ENCODING 175
SWIDTH 615 0
DWIDTH 16 0
BBX 13 16 2 0
BITMAP
0708
18D0
2020
4050
4090
8088
8108
8208
8208
8408
8808
4810
5010
2020
58C0
8700
ENDCHAR
STARTCHAR infinity
ENCODING 176
SWIDTH 923 0
DWIDTH 24 0
BBX 21 12 2 2
BITMAP
0E0380
318C60
405010
405010
802008
802008
802008
802008
405010
405010
318C60
0E0380
ENDCHAR
STARTCHAR plusminus
ENCODING 177
SWIDTH 615 0
DWIDTH 16 0
BBX 13 16 2 0
BITMAP
0200
0200
0200
0200
0200
0200
FFF8
0200
0200
0200
0200
0200
0200
0000
0000
FFF8
ENDCHAR
STARTCHAR lessequal
ENCODING 178
SWIDTH 615 0
DWIDTH 16 0
BBX 12 14 2 1
BITMAP
0030
00C0
0300
0C00
3000
C000
3000
0C00
0300
00C0
0030
0000
0000
FFF0
ENDCHAR
STARTCHAR greaterequal
ENCODING 179
SWIDTH 615 0
DWIDTH 16 0
BBX 12 14 2 1
BITMAP
C000
3000
0C00
0300
00C0
0030
00C0
0300
0C00
3000
C000
0000
0000
FFF0
ENDCHAR
STARTCHAR yen
ENCODING 180
SWIDTH 615 0
DWIDTH 16 0
BBX 13 16 2 0
BITMAP
F8F8
2020
1040
1040
0880
0880
0500
0200
3FE0
0200
0200
3FE0
0200
0200
0200
0F80
ENDCHAR
STARTCHAR mu
ENCODING 181
SWIDTH 538 0
DWIDTH 14 0
BBX 11 14 2 -4
BITMAP
8080
8080
8080
8080
8080
8080
8080
8080
C140
BE20
8000
8000
8000
8000
ENDCHAR
STARTCHAR partialdiff
ENCODING 182
SWIDTH 461 0
DWIDTH 12 0
BBX 9 16 2 0
BITMAP
3800
4400
4200
2000
1000
0800
1C00
2200
4100
8080
8080
8080
8080
4100
2200
1C00
ENDCHAR
STARTCHAR summation
ENCODING 183
SWIDTH 615 0
DWIDTH 16 0
BBX 13 16 2 0
BITMAP
FFF8
4008
2008
1000
0800
0400
0200
0100
0100
0200
0400
0800
1000
2008
4008
FFF8
ENDCHAR
STARTCHAR product
ENCODING 184
SWIDTH 692 0
DWIDTH 18 0
BBX 15 16 2 0
BITMAP
FFFE
2008
2008
2008
2008
2008
2008
2008
2008
2008
2008
2008
2008
2008
2008
F83E
ENDCHAR
STARTCHAR pi
ENCODING 185
SWIDTH 615 0
DWIDTH 16 0
BBX 13 11 2 0
BITMAP
0008
3FF0
5040
9040
1040
1040
1040
1040
1040
9048
6030
ENDCHAR
STARTCHAR integral
ENCODING 186
SWIDTH 461 0
DWIDTH 12 0
BBX 9 20 2 -4
BITMAP
3800
4400
8200
8200
8200
8400
B800
8600
8100
8080
8080
8080
8080
8100
8600
B800
8000
8000
8000
8000
ENDCHAR
STARTCHAR ordfeminine
ENCODING 187
SWIDTH 384 0
DWIDTH 10 0
BBX 7 17 2 3
BITMAP
80
80
80
80
80
80
B8
C4
82
82
82
82
84
88
90
A0
C0
ENDCHAR
STARTCHAR ordmasculine
ENCODING 188
SWIDTH 538 0
DWIDTH 14 0
BBX 11 19 2 1
BITMAP
0100
0100
1100
1100
1160
1180
1700
1900
3100
D160
1180
1300
1D00
3100
D100
1100
1100
1000
1000
ENDCHAR
STARTCHAR Omega
ENCODING 189
SWIDTH 615 0
DWIDTH 16 0
BBX 13 16 2 0
BITMAP
0700
18C0
2020
4010
4010
8008
8008
8008
4010
4010
2020
1040
1040
8888
8888
F8F8
ENDCHAR
STARTCHAR ae
ENCODING 190
SWIDTH 923 0
DWIDTH 25 0
BBX 22 12 2 0
BITMAP
0E03C0
318C30
405008
002004
03E004
0C3FFC
302000
402000
802000
805008
408C30
3F03C0
ENDCHAR
STARTCHAR oslash
ENCODING 191
SWIDTH 538 0
DWIDTH 14 0
BBX 11 12 2 0
BITMAP
1F20
20C0
40C0
4140
8220
8420
8420
8820
5040
6040
6080
9F00
ENDCHAR
STARTCHAR questiondown
ENCODING 192
SWIDTH 461 0
DWIDTH 13 0
BBX 9 16 2 -4
BITMAP
0800
0800
0000
0000
0000
0800
0800
0800
1000
2000
4000
8000
8080
8080
4100
3E00
ENDCHAR
STARTCHAR exclamdown
ENCODING 193
SWIDTH 307 0
DWIDTH 8 0
BBX 1 16 4 -4
BITMAP
80
80
00
00
00
80
80
80
80
80
80
80
80
80
80
80
ENDCHAR
STARTCHAR logicalnot
ENCODING 194
SWIDTH 615 0
DWIDTH 16 0
BBX 13 20 2 -4
BITMAP
0200
0200
0200
0200
0200
0200
4210
4210
8208
8208
8208
4210
4210
2220
1AC0
0700
0200
0200
0200
0200
ENDCHAR
STARTCHAR radical
ENCODING 195
SWIDTH 615 0
DWIDTH 16 0
BBX 14 26 2 -4
BITMAP
0004
0004
0004
0008
0008
0008
0010
0010
0010
0020
0020
0020
0040
0040
8040
8080
4080
4080
2100
2100
1100
1200
0A00
0A00
0400
0400
ENDCHAR
STARTCHAR florin
ENCODING 196
SWIDTH 461 0
DWIDTH 14 0
BBX 11 20 2 -4
BITMAP
0400
0400
0400
0400
0400
0400
0E00
3580
4440
4440
8420
8420
4440
4440
3580
0E00
0400
0400
0400
0400
ENDCHAR
STARTCHAR approxequal
ENCODING 197
SWIDTH 615 0
DWIDTH 16 0
BBX 13 8 2 4
BITMAP
3C08
4210
81E0
0000
0000
3C08
4210
81E0
ENDCHAR
STARTCHAR Delta
ENCODING 198
SWIDTH 769 0
DWIDTH 18 0
BBX 15 16 2 0
BITMAP
0100
0100
0280
0280
0440
0440
0820
0820
1010
1010
2008
2008
4004
4004
8002
FFFE
ENDCHAR
STARTCHAR guillemotleft
ENCODING 199
SWIDTH 538 0
DWIDTH 16 0
BBX 13 13 2 0
BITMAP
0208
0410
0820
1040
2080
4100
8200
4100
2080
1040
0820
0410
0208
ENDCHAR
STARTCHAR guillemotright
ENCODING 200
SWIDTH 538 0
DWIDTH 16 0
BBX 13 13 2 0
BITMAP
8200
4100
2080
1040
0820
0410
0208
0410
0820
1040
2080
4100
8200
ENDCHAR
STARTCHAR ellipsis
ENCODING 201
SWIDTH 1692 0
DWIDTH 44 0
BBX 31 2 7 0
BITMAP
80010002
80010002
ENDCHAR
STARTCHAR uni00A0
ENCODING 202
SWIDTH 76 0
DWIDTH 2 0
BBX 1 1 2 -4
BITMAP
00
ENDCHAR
STARTCHAR Agrave
ENCODING 203
SWIDTH 923 0
DWIDTH 24 0
BBX 18 18 4 0
BITMAP
201000
601000
A02000
202000
204000
204000
208000
208000
211FC0
211080
020100
020300
040080
040040
080040
081040
100880
100700
ENDCHAR
STARTCHAR Atilde
ENCODING 204
SWIDTH 923 0
DWIDTH 24 0
BBX 18 18 4 0
BITMAP
FE0400
840400
080800
180800
041000
021000
022000
822000
444100
384300
008500
008900
011100
012100
023FC0
020100
040100
040380
ENDCHAR
STARTCHAR Otilde
ENCODING 205
SWIDTH 615 0
DWIDTH 16 0
BBX 13 21 2 0
BITMAP
1C10
2220
41C0
0000
0000
0700
18C0
2020
4010
4010
8008
8008
8008
8008
8008
8008
4010
4010
2020
18C0
0700
ENDCHAR
STARTCHAR OE
ENCODING 206
SWIDTH 1000 0
DWIDTH 26 0
BBX 23 16 2 0
BITMAP
07FFFE
181002
201002
401000
401000
801040
801040
801FC0
801040
801040
801000
401000
401000
201002
181002
07FFFE
ENDCHAR
STARTCHAR oe
ENCODING 207
SWIDTH 923 0
DWIDTH 24 0
BBX 21 12 2 0
BITMAP
1F07C0
208820
405010
405010
802008
803FF8
802000
802000
405000
405010
208820
1F07C0
ENDCHAR
STARTCHAR endash
ENCODING 208
SWIDTH 384 0
DWIDTH 10 0
BBX 7 1 2 6
BITMAP
FE
ENDCHAR
STARTCHAR emdash
ENCODING 209
SWIDTH 1076 0
DWIDTH 28 0
BBX 23 1 3 6
BITMAP
FFFFFE
ENDCHAR
STARTCHAR quotedblleft
ENCODING 210
SWIDTH 538 0
DWIDTH 14 0
BBX 8 5 3 11
BITMAP
21
42
84
84
E7
ENDCHAR
STARTCHAR quotedblright
ENCODING 211
SWIDTH 538 0
DWIDTH 14 0
BBX 8 5 3 11
BITMAP
E7
21
21
42
84
ENDCHAR
STARTCHAR quoteleft
ENCODING 212
SWIDTH 307 0
DWIDTH 8 0
BBX 3 5 2 11
BITMAP
20
40
80
80
E0
ENDCHAR
STARTCHAR quoteright
ENCODING 213
SWIDTH 307 0
DWIDTH 8 0
BBX 3 5 3 11
BITMAP
E0
20
20
40
80
ENDCHAR
STARTCHAR divide
ENCODING 214
SWIDTH 615 0
DWIDTH 16 0
BBX 13 11 2 2
BITMAP
0200
0200
0000
0000
0000
FFF8
0000
0000
0000
0200
0200
ENDCHAR
STARTCHAR lozenge
ENCODING 215
SWIDTH 615 0
DWIDTH 16 0
BBX 13 13 2 1
BITMAP
8008
4010
2020
1040
0880
0500
0200
0500
0880
1040
2020
4010
8008
ENDCHAR
STARTCHAR ydieresis
ENCODING 216
SWIDTH 692 0
DWIDTH 18 0
BBX 17 20 1 -4
BITMAP
080800
080800
000000
000000
F80F80
200200
100400
100400
080800
041000
041000
022000
022000
014000
008000
008000
010000
010000
020000
1C0000
ENDCHAR
STARTCHAR Ydieresis
ENCODING 217
SWIDTH 615 0
DWIDTH 16 0
BBX 13 7 2 4
BITMAP
3C08
4210
81E0
0000
0000
0000
FFF8
ENDCHAR
STARTCHAR fraction
ENCODING 218
SWIDTH 923 0
DWIDTH 24 0
BBX 20 16 2 0
BITMAP
000100
000080
000040
000020
FFFFF0
000020
000040
080080
100100
200000
400000
FFFFF0
400000
200000
100000
080000
ENDCHAR
STARTCHAR currency
ENCODING 219
SWIDTH 923 0
DWIDTH 24 0
BBX 17 18 4 0
BITMAP
201000
601000
A02000
202000
204000
204000
208000
208000
210E00
211100
022080
020080
040080
040300
080C00
081000
102080
103F80
ENDCHAR
STARTCHAR guilsinglleft
ENCODING 220
SWIDTH 615 0
DWIDTH 16 0
BBX 13 16 2 0
BITMAP
FF00
20C0
2020
2010
2010
2008
2008
F808
2008
2008
2008
2010
2010
2020
20C0
FF00
ENDCHAR
STARTCHAR guilsinglright
ENCODING 221
SWIDTH 538 0
DWIDTH 14 0
BBX 11 16 2 0
BITMAP
E200
1400
0800
1400
2200
0100
1F80
2080
4040
8020
8020
8020
8020
4040
2080
1F00
ENDCHAR
STARTCHAR uniFB01
ENCODING 222
SWIDTH 538 0
DWIDTH 15 0
BBX 12 16 2 0
BITMAP
F800
2000
2000
3F00
20C0
2020
2020
2010
2010
2020
2020
20C0
3F00
2000
2000
F800
ENDCHAR
STARTCHAR uniFB02
ENCODING 223
SWIDTH 615 0
DWIDTH 16 0
BBX 13 20 2 -4
BITMAP
E000
2000
2000
2000
27C0
2820
3010
2010
2008
2008
2008
2008
2010
3010
2820
27C0
2000
2000
2000
F800
ENDCHAR
STARTCHAR daggerdbl
ENCODING 224
SWIDTH 692 0
DWIDTH 18 0
BBX 17 22 1 -4
BITMAP
001000
002000
004000
008000
000000
000000
F80F80
200200
100400
100400
080800
041000
041000
022000
022000
014000
008000
008000
010000
010000
020000
1C0000
ENDCHAR
STARTCHAR periodcentered
ENCODING 225
SWIDTH 923 0
DWIDTH 24 0
BBX 20 9 2 3
BITMAP
000100
000080
000040
000020
FFFFF0
000020
000040
000080
000100
ENDCHAR
STARTCHAR quotesinglbase
ENCODING 226
SWIDTH 923 0
DWIDTH 24 0
BBX 20 9 2 3
BITMAP
080000
100000
200000
400000
FFFFF0
400000
200000
100000
080000
ENDCHAR
STARTCHAR quotedblbase
ENCODING 227
SWIDTH 615 0
DWIDTH 16 0
BBX 13 16 2 0
BITMAP
FFF8
8008
8008
0000
0000
0000
1040
1FC0
1040
0000
0000
0000
0000
8008
8008
FFF8
ENDCHAR
STARTCHAR perthousand
ENCODING 228
SWIDTH 384 0
DWIDTH 10 0
BBX 7 10 2 0
BITMAP
1C
22
40
80
FC
80
80
40
22
1C
ENDCHAR
STARTCHAR Acircumflex
ENCODING 229
SWIDTH 923 0
DWIDTH 24 0
BBX 18 18 4 0
BITMAP
201000
601000
A02000
202000
204000
204000
208000
208000
210100
210300
020500
020900
041100
042100
083FC0
080100
100100
100380
ENDCHAR
STARTCHAR Ecircumflex
ENCODING 230
SWIDTH 461 0
DWIDTH 12 0
BBX 9 10 2 0
BITMAP
7F80
8800
0800
0800
0800
0800
0800
0800
0900
0600
ENDCHAR
STARTCHAR Aacute
ENCODING 231
SWIDTH 769 0
DWIDTH 20 0
BBX 17 22 2 0
BITMAP
001000
002000
004000
008000
000000
000000
008000
008000
014000
014000
022000
022000
041000
041000
041000
080800
080800
1FFC00
100400
200200
200200
F80F80
ENDCHAR
STARTCHAR Edieresis
ENCODING 232
SWIDTH 692 0
DWIDTH 18 0
BBX 15 16 2 0
BITMAP
07C0
1830
2008
4004
4004
8822
8822
8FE2
8822
8822
8002
4004
4004
2008
1830
07C0
ENDCHAR
STARTCHAR Egrave
ENCODING 233
SWIDTH 769 0
DWIDTH 20 0
BBX 17 16 2 0
BITMAP
43E100
A08280
208200
208200
208200
208200
108400
108400
0C9800
03E000
008000
008000
008000
008000
008000
03E000
ENDCHAR
STARTCHAR Iacute
ENCODING 234
SWIDTH 384 0
DWIDTH 10 0
BBX 5 22 3 0
BITMAP
08
10
20
40
00
00
F8
20
20
20
20
20
20
20
20
20
20
20
20
20
20
F8
ENDCHAR
STARTCHAR Icircumflex
ENCODING 235
SWIDTH 769 0
DWIDTH 20 0
BBX 17 10 2 0
BITMAP
200200
400100
800080
800080
808080
808080
408100
414100
222200
1C1C00
ENDCHAR
STARTCHAR Idieresis
ENCODING 236
SWIDTH 538 0
DWIDTH 14 0
BBX 11 10 2 0
BITMAP
0C20
3320
40A0
4040
8040
8040
4040
40A0
3320
0C20
ENDCHAR
STARTCHAR Igrave
ENCODING 237
SWIDTH 538 0
DWIDTH 16 0
BBX 13 14 2 -4
BITMAP
6008
9008
8810
0810
0420
0420
0240
0280
0280
0100
0100
0100
1200
0C00
ENDCHAR
STARTCHAR Oacute
ENCODING 238
SWIDTH 615 0
DWIDTH 16 0
BBX 13 22 2 0
BITMAP
0040
0080
0100
0200
0000
0000
0700
18C0
2020
4010
4010
8008
8008
8008
8008
8008
8008
4010
4010
2020
18C0
0700
ENDCHAR
STARTCHAR Ocircumflex
ENCODING 239
SWIDTH 615 0
DWIDTH 16 0
BBX 13 16 2 0
BITMAP
FFF8
2008
2008
2000
2000
2000
2000
2000
2000
2000
2000
2000
2000
2000
2000
F800
ENDCHAR
STARTCHAR NameMe.240
ENCODING 240
SWIDTH 461 0
DWIDTH 12 0
BBX 9 10 2 0
BITMAP
8180
4200
4400
4800
5000
6800
4400
4200
4100
8080
ENDCHAR
STARTCHAR Ograve
ENCODING 241
SWIDTH 538 0
DWIDTH 14 0
BBX 11 16 2 0
BITMAP
C000
2000
1000
0800
0400
0400
0A00
0A00
1100
1100
2080
2080
4040
4040
8020
8020
ENDCHAR
STARTCHAR Uacute
ENCODING 242
SWIDTH 769 0
DWIDTH 20 0
BBX 17 22 2 0
BITMAP
001000
002000
004000
008000
000000
000000
F80F80
200200
200200
200200
200200
200200
200200
200200
200200
200200
200200
200200
100400
100400
0C1800
03E000
ENDCHAR
STARTCHAR Ucircumflex
ENCODING 243
SWIDTH 461 0
DWIDTH 12 0
BBX 9 20 2 -4
BITMAP
8080
4100
3E00
0800
1000
2000
2000
4000
4000
8000
8000
8000
8000
8000
4000
3F00
0080
0080
0100
1E00
ENDCHAR
STARTCHAR Ugrave
ENCODING 244
SWIDTH 538 0
DWIDTH 14 0
BBX 11 14 2 -4
BITMAP
6020
9040
1080
0900
0900
0A00
0400
0400
0A00
1200
2200
2100
4120
80C0
ENDCHAR
STARTCHAR dotlessi
ENCODING 245
SWIDTH 538 0
DWIDTH 14 0
BBX 11 10 2 0
BITMAP
4080
A040
2020
2020
2020
2020
2020
2040
1080
0F00
ENDCHAR
STARTCHAR circumflex
ENCODING 246
SWIDTH 692 0
DWIDTH 18 0
BBX 15 16 2 0
BITMAP
3C78
4284
8102
8102
8102
0100
0100
0100
0100
0100
0100
0100
0100
0100
0100
07C0
ENDCHAR
STARTCHAR tilde
ENCODING 247
SWIDTH 461 0
DWIDTH 12 0
BBX 10 10 1 0
BITMAP
C040
2040
2040
1080
1080
0900
0900
0A00
0C00
0800
ENDCHAR
STARTCHAR macron
ENCODING 248
SWIDTH 384 0
DWIDTH 10 0
BBX 6 16 2 3
BITMAP
80
80
84
8C
94
A4
C4
84
84
8C
94
A4
C4
84
04
04
ENDCHAR
STARTCHAR breve
ENCODING 249
SWIDTH 615 0
DWIDTH 16 0
BBX 12 9 2 3
BITMAP
FFF0
0000
0000
0000
FFF0
0000
0000
0000
FFF0
ENDCHAR
STARTCHAR dotaccent
ENCODING 250
SWIDTH 538 0
DWIDTH 14 0
BBX 11 14 2 -4
BITMAP
4F80
B040
2020
2020
2020
2020
2020
2020
2020
2020
0020
0020
0020
0020
ENDCHAR
STARTCHAR ring
ENCODING 251
SWIDTH 307 0
DWIDTH 8 0
BBX 5 10 2 0
BITMAP
80
80
80
80
80
80
80
88
90
60
ENDCHAR
ENDFONT
